<svg width="1440" height="883" viewBox="0 0 1440 883" fill="none" xmlns="http://www.w3.org/2000/svg">
<path d="M1.16048 66.417C1.36569 66.2545 1.64401 66.0357 1.99375 65.7644C2.83308 65.1134 4.08365 64.1602 5.72198 62.9566C8.99873 60.5495 13.826 57.1416 20.0158 53.1485C32.3968 45.1615 50.2218 34.8379 71.9883 25.4974C115.535 6.81067 174.763 -7.90222 237.721 7.78407C263.968 14.3238 294.384 29.6519 326.703 49.0424C354.3 65.6003 383.211 85.0737 412.021 104.48C416.936 107.791 421.849 111.1 426.751 114.392C460.37 136.968 493.522 158.755 523.855 174.897C554.152 191.02 581.811 201.61 604.409 201.61C626.982 201.61 647.972 193.719 668.681 181.822C686.895 171.359 704.971 157.749 723.758 143.604C726.314 141.679 728.884 139.744 731.47 137.805C774.696 105.396 822.346 71.9508 885.236 67.017C919.998 64.2898 978.32 70.3935 1046.36 81.1276C1114.37 91.8556 1191.96 107.188 1265.2 122.866C1338.45 138.543 1407.32 154.563 1457.89 166.664C1483.18 172.714 1503.88 177.785 1518.27 181.343C1525.46 183.121 1531.07 184.522 1534.89 185.478C1536.79 185.956 1538.25 186.323 1539.23 186.57L1539.84 186.724V611.841H1.16048V66.417Z" fill="url(#paint0_linear_213_74)" fill-opacity="0.15" stroke="url(#paint1_linear_213_74)" stroke-width="2.31902"/>
<path d="M1520.42 280.42V882.42H0.58073V111.519C0.742086 111.494 0.942826 111.463 1.18224 111.425C1.90355 111.313 2.97588 111.147 4.37968 110.931C7.18727 110.5 11.3207 109.869 16.6235 109.074C27.2291 107.482 42.512 105.231 61.2205 102.591C98.6378 97.3095 149.756 90.4721 204.561 84.2465C259.367 78.0208 317.854 72.4075 370.01 69.5739C422.182 66.7394 467.971 66.6893 497.406 71.5719C543.987 79.2986 619.914 102.838 696.953 126.721C707.074 129.859 717.213 133.002 727.308 136.116C770.763 149.523 813.376 162.386 850.018 171.897C886.641 181.404 917.361 187.58 937.001 187.58C956.69 187.58 980.555 179.639 1006.95 167.573C1032.15 156.058 1059.73 140.75 1088.28 124.902C1089.66 124.137 1091.04 123.371 1092.42 122.604C1152.51 89.2597 1216.56 54.2514 1271.91 47.2662C1302.33 43.4278 1333.07 56.0022 1362.12 77.1362C1391.16 98.2654 1418.43 127.9 1441.91 158.044C1465.37 188.185 1485.02 218.811 1498.8 241.905C1505.69 253.451 1511.11 263.113 1514.81 269.887C1516.66 273.274 1518.08 275.939 1519.04 277.757C1519.51 278.666 1519.88 279.363 1520.12 279.832C1520.24 280.067 1520.33 280.245 1520.39 280.364L1520.42 280.42Z" fill="url(#paint2_linear_213_74)" fill-opacity="0.2" stroke="url(#paint3_linear_213_74)" stroke-width="1.15951"/>
<defs>
<linearGradient id="paint0_linear_213_74" x1="770.501" y1="46.9818" x2="770.501" y2="554.832" gradientUnits="userSpaceOnUse">
<stop offset="0.318555" stop-color="#005F96"/>
<stop offset="0.5" stop-color="#1B7CB5"/>
<stop offset="0.9" stop-color="#E3AA3E" stop-opacity="0.03"/>
</linearGradient>
<linearGradient id="paint1_linear_213_74" x1="770.501" y1="46.9818" x2="770.501" y2="554.832" gradientUnits="userSpaceOnUse">
<stop offset="0.318555" stop-color="#127FBF"/>
<stop offset="0.5" stop-color="#1B7CB5"/>
<stop offset="0.9" stop-color="#E3AA3E" stop-opacity="0.03"/>
</linearGradient>
<linearGradient id="paint2_linear_213_74" x1="760.501" y1="110.15" x2="760.501" y2="803.577" gradientUnits="userSpaceOnUse">
<stop offset="0.318555" stop-color="#005F96"/>
<stop offset="0.5" stop-color="#1B7CB5"/>
<stop offset="0.9" stop-color="#E3AA3E" stop-opacity="0.03"/>
</linearGradient>
<linearGradient id="paint3_linear_213_74" x1="760.501" y1="110.15" x2="760.501" y2="803.577" gradientUnits="userSpaceOnUse">
<stop stop-color="#2CA6EC"/>
<stop offset="1" stop-color="#005F96"/>
</linearGradient>
</defs>
</svg>
