<svg width="30" height="29" viewBox="0 0 30 29" fill="none" xmlns="http://www.w3.org/2000/svg">
<path opacity="0.9" d="M22 1H8C4.13401 1 1 4.7776 1 9.4375V19.5625C1 24.2224 4.13401 28 8 28H22C25.866 28 29 24.2224 29 19.5625V9.4375C29 4.7776 25.866 1 22 1Z" stroke="white" stroke-width="2" stroke-linecap="round" stroke-linejoin="round"/>
<path d="M16.274 15.7087V21.9799H13.3932V15.7087H11V13.1659H13.3932V12.2407C13.3932 8.806 14.8281 7 17.8639 7C18.7946 7 19.0273 7.14958 19.537 7.27145V9.78656C18.9664 9.68685 18.8057 9.63145 18.2129 9.63145C17.5094 9.63145 17.1327 9.83088 16.7892 10.2242C16.4457 10.6175 16.274 11.299 16.274 12.274V13.1714H19.537L18.6617 15.7142L16.274 15.6669V15.7087Z" stroke="white" stroke-width="1.5"/>
</svg>
