<svg width="62" height="62" viewBox="0 0 62 62" fill="none" xmlns="http://www.w3.org/2000/svg">
<path fill-rule="evenodd" clip-rule="evenodd" d="M31 62C13.9066 62 0 48.0934 0 31C0 13.9066 13.9066 0 31 0C48.0934 0 62 13.9066 62 31C62 48.0934 48.0934 62 31 62Z" fill="#272727"/>
<path fill-rule="evenodd" clip-rule="evenodd" d="M23.3242 41.2046C22.729 41.2046 22.1338 40.9783 21.6812 40.5226C20.7729 39.6143 20.7729 38.1449 21.6812 37.2366L36.5364 22.3814C37.4447 21.4731 38.9141 21.4731 39.8224 22.3814C40.7307 23.2897 40.7307 24.7591 39.8224 25.6674L24.9672 40.5226C24.5146 40.9783 23.9194 41.2046 23.3242 41.2046Z" fill="white"/>
<path fill-rule="evenodd" clip-rule="evenodd" d="M38.1918 41.2201C37.5966 41.2201 37.0014 40.9938 36.5488 40.5381L21.6812 25.6674C20.7729 24.7591 20.7729 23.2897 21.6812 22.3814C22.5926 21.4731 24.062 21.4731 24.9672 22.3814L39.8348 37.2521C40.7431 38.1604 40.7431 39.6298 39.8348 40.5381C39.3822 40.9938 38.7839 41.2201 38.1918 41.2201Z" fill="white"/>
</svg>
